<?xml version="1.0" encoding="UTF-8" standalone="no"?>
<!-- Created with Inkscape (http://www.inkscape.org/) -->

<svg
   xmlns:dc="http://purl.org/dc/elements/1.1/"
   xmlns:cc="http://creativecommons.org/ns#"
   xmlns:rdf="http://www.w3.org/1999/02/22-rdf-syntax-ns#"
   xmlns:svg="http://www.w3.org/2000/svg"
   xmlns="http://www.w3.org/2000/svg"
   xmlns:xlink="http://www.w3.org/1999/xlink"
   xmlns:sodipodi="http://sodipodi.sourceforge.net/DTD/sodipodi-0.dtd"
   xmlns:inkscape="http://www.inkscape.org/namespaces/inkscape"
   id="svg2"
   xml:space="preserve"
   viewBox="0 0 549.27104 849.99997"
   version="1.1"
   inkscape:version="0.91 r13725"
   sodipodi:docname="food-kimchi.svg"
   width="549.27106"
   height="850"><sodipodi:namedview
     pagecolor="#ffffff"
     bordercolor="#666666"
     borderopacity="1"
     objecttolerance="10"
     gridtolerance="10"
     guidetolerance="10"
     inkscape:pageopacity="0"
     inkscape:pageshadow="2"
     inkscape:window-width="1916"
     inkscape:window-height="1035"
     id="namedview295"
     showgrid="false"
     fit-margin-top="0"
     fit-margin-left="0"
     fit-margin-right="0"
     fit-margin-bottom="0"
     inkscape:zoom="0.43527528"
     inkscape:cx="261.45528"
     inkscape:cy="484.33263"
     inkscape:window-x="4"
     inkscape:window-y="1"
     inkscape:window-maximized="1"
     inkscape:current-layer="g12" /><defs
     id="defs6"><linearGradient
       inkscape:collect="always"
       id="linearGradient4471"><stop
         style="stop-color:#cbcbcb;stop-opacity:1"
         offset="0"
         id="stop4473" /><stop
         style="stop-color:#d6d6d6;stop-opacity:0;"
         offset="1"
         id="stop4475" /></linearGradient><linearGradient
       inkscape:collect="always"
       id="linearGradient4461"><stop
         style="stop-color:#c6c6c6;stop-opacity:1"
         offset="0"
         id="stop4463" /><stop
         style="stop-color:#d6d6d6;stop-opacity:0;"
         offset="1"
         id="stop4465" /></linearGradient><linearGradient
       inkscape:collect="always"
       id="linearGradient4453"><stop
         style="stop-color:#3b4f6b;stop-opacity:1;"
         offset="0"
         id="stop4455" /><stop
         style="stop-color:#3b4f6b;stop-opacity:0;"
         offset="1"
         id="stop4457" /></linearGradient><linearGradient
       inkscape:collect="always"
       id="linearGradient4423"><stop
         style="stop-color:#8d8d8d;stop-opacity:1"
         offset="0"
         id="stop4425" /><stop
         id="stop4431"
         offset="0.64602441"
         style="stop-color:#e7e7e7;stop-opacity:0.35294119" /><stop
         style="stop-color:#e0e0e0;stop-opacity:0"
         offset="1"
         id="stop4427" /></linearGradient><linearGradient
       id="linearGradient24"
       y2="23.431999"
       gradientUnits="userSpaceOnUse"
       x2="24.174999"
       gradientTransform="matrix(0.8,0,0,-0.8,3.5474e-7,32.331)"
       y1="23.431999"><stop
         id="stop26"
         style="stop-color:#d4d5ff"
         offset="0" /><stop
         id="stop28"
         style="stop-color:#2a2a54"
         offset="1" /></linearGradient><linearGradient
       id="linearGradient42"
       y2="23.256001"
       gradientUnits="userSpaceOnUse"
       x2="23.35"
       gradientTransform="matrix(0.8,0,0,-0.8,3.5474e-7,32.331)"
       y1="23.256001"
       x1="0.64990002"><stop
         id="stop44"
         style="stop-color:#ce5022;stop-opacity:1"
         offset="0" /><stop
         id="stop46"
         style="stop-color:#983d44;stop-opacity:1"
         offset="1" /></linearGradient><linearGradient
       id="linearGradient60"
       y2="26.631001"
       gradientUnits="userSpaceOnUse"
       x2="17.562"
       gradientTransform="matrix(0.8,0,0,-0.8,3.5474e-7,32.331)"
       y1="26.631001"
       x1="1.2373"><stop
         id="stop62"
         style="stop-color:#ded2a9"
         offset="0" /><stop
         id="stop64"
         style="stop-color:#9e936d"
         offset="1" /></linearGradient><linearGradient
       id="linearGradient78"
       y2="30.6"
       gradientUnits="userSpaceOnUse"
       x2="14.625"
       gradientTransform="matrix(0.8,0,0,-0.8,3.5474e-7,32.331)"
       y1="30.6"
       x1="2.375"><stop
         id="stop80"
         style="stop-color:#45488f"
         offset="0" /><stop
         id="stop82"
         style="stop-color:#313157"
         offset="1" /></linearGradient><linearGradient
       id="linearGradient96"
       y2="26.26"
       gradientUnits="userSpaceOnUse"
       x2="13.7"
       gradientTransform="matrix(0.8,0,0,-0.8,3.5474e-7,32.331)"
       y1="26.26"
       x1="2.5"><stop
         id="stop98"
         style="stop-color:#6e73e6"
         offset="0" /><stop
         id="stop100"
         style="stop-color:#373770"
         offset="1" /></linearGradient><linearGradient
       id="linearGradient114"
       y2="28.049"
       gradientUnits="userSpaceOnUse"
       x2="13.7"
       gradientTransform="matrix(0.8,0,0,-0.8,3.5474e-7,32.331)"
       y1="28.049"
       x1="2.5"><stop
         id="stop116"
         style="stop-color:#6e73e6"
         offset="0" /><stop
         id="stop118"
         style="stop-color:#373770"
         offset="1" /></linearGradient><linearGradient
       id="linearGradient132"
       y2="27.27"
       gradientUnits="userSpaceOnUse"
       x2="14.635"
       gradientTransform="matrix(0.8,0,0,-0.8,3.5474e-7,32.331)"
       y1="27.27"
       x1="2.3848"><stop
         id="stop134"
         style="stop-color:#45488f"
         offset="0" /><stop
         id="stop136"
         style="stop-color:#313157"
         offset="1" /></linearGradient><linearGradient
       id="linearGradient150"
       y2="27.1"
       gradientUnits="userSpaceOnUse"
       x2="14.625"
       gradientTransform="matrix(0.8,0,0,-0.8,3.5474e-7,32.331)"
       y1="27.1"
       x1="2.375"><stop
         id="stop152"
         style="stop-color:#45488f"
         offset="0" /><stop
         id="stop154"
         style="stop-color:#313157"
         offset="1" /></linearGradient><linearGradient
       id="linearGradient168"
       y2="28.35"
       gradientUnits="userSpaceOnUse"
       x2="14.625"
       gradientTransform="matrix(0.8,0,0,-0.8,3.5474e-7,32.331)"
       y1="28.35"
       x1="2.375"><stop
         id="stop170"
         style="stop-color:#45488f"
         offset="0" /><stop
         id="stop172"
         style="stop-color:#313157"
         offset="1" /></linearGradient><linearGradient
       id="linearGradient186"
       y2="27.056999"
       gradientUnits="userSpaceOnUse"
       x2="10.05"
       gradientTransform="matrix(0.8,0,0,-0.8,3.5474e-7,32.331)"
       y1="27.056999"
       x1="2.8501"><stop
         id="stop188"
         style="stop-color:#cfd1ff"
         offset="0" /><stop
         id="stop190"
         style="stop-color:#7e7fd6"
         offset="1" /></linearGradient><linearGradient
       id="linearGradient204"
       y2="25.094999"
       gradientUnits="userSpaceOnUse"
       x2="10.05"
       gradientTransform="matrix(0.8,0,0,-0.8,3.5474e-7,32.331)"
       y1="25.094999"
       x1="2.8501"><stop
         id="stop206"
         style="stop-color:#cfd1ff"
         offset="0" /><stop
         id="stop208"
         style="stop-color:#7e7fd6"
         offset="1" /></linearGradient><clipPath
       id="clipPath216"><path
         id="path218"
         d="m 1,1.3314 5,0 0,26 -5,0 0,-26 z"
         inkscape:connector-curvature="0" /></clipPath><mask
       id="mask220"><g
         id="g222"><g
           id="g224"
           clip-path="url(#clipPath216)"><path
             id="path226"
             style="fill:#000000;fill-opacity:0.57810005"
             d="m 1,1.3314 5,0 0,26 -5,0 0,-26 z"
             inkscape:connector-curvature="0" /></g></g></mask><clipPath
       id="clipPath232"><path
         id="path234"
         d="m 1,1.3314 5,0 0,26 -5,0 0,-26 z"
         inkscape:connector-curvature="0" /></clipPath><clipPath
       id="clipPath236"><path
         id="path238"
         d="M 1,2 6,2 6,28 1,28 1,2 Z"
         inkscape:connector-curvature="0" /></clipPath><linearGradient
       id="linearGradient244"
       y2="-15755"
       gradientUnits="userSpaceOnUse"
       x2="-517.98999"
       gradientTransform="matrix(0.05568,-0.79808,0.79808,0.05568,12607,468.82)"
       y1="-15755"
       x1="-543.15002"><stop
         id="stop246"
         style="stop-color:#ffffff"
         offset="0" /><stop
         id="stop248"
         style="stop-color:#000000"
         offset="1" /></linearGradient><clipPath
       id="clipPath276"><path
         id="path278"
         d="m 13,1.3314 5,0 0,26 -5,0 0,-26 z"
         inkscape:connector-curvature="0" /></clipPath><mask
       id="mask280"><g
         id="g282"><g
           id="g284"
           clip-path="url(#clipPath276)"><path
             id="path286"
             style="fill:#000000;fill-opacity:0.21089998"
             d="m 13,1.3314 5,0 0,26 -5,0 0,-26 z"
             inkscape:connector-curvature="0" /></g></g></mask><clipPath
       id="clipPath292"><path
         id="path294"
         d="m 13,1.3314 5,0 0,26 -5,0 0,-26 z"
         inkscape:connector-curvature="0" /></clipPath><clipPath
       id="clipPath296"><path
         id="path298"
         d="m 13,2 5,0 0,26 -5,0 0,-26 z"
         inkscape:connector-curvature="0" /></clipPath><linearGradient
       id="linearGradient304"
       y2="-2.3843999"
       gradientUnits="userSpaceOnUse"
       x2="2.4663"
       gradientTransform="matrix(0.8,0,0,0.8,13.52,27.6)"
       y1="-27.483999"
       x1="4.2163"><stop
         id="stop306"
         style="stop-color:#ffffff"
         offset="0" /><stop
         id="stop308"
         style="stop-color:#000000"
         offset="1" /></linearGradient><clipPath
       id="clipPath336"><path
         id="path338"
         d="m 2,22.331 16,0 0,5 -16,0 0,-5 z"
         inkscape:connector-curvature="0" /></clipPath><mask
       id="mask340"><g
         id="g342"><g
           id="g344"
           clip-path="url(#clipPath336)"><path
             id="path346"
             style="fill:#000000;fill-opacity:0.76950001"
             d="m 2,22.331 16,0 0,5 -16,0 0,-5 z"
             inkscape:connector-curvature="0" /></g></g></mask><clipPath
       id="clipPath352"><path
         id="path354"
         d="m 2,22.331 16,0 0,5 -16,0 0,-5 z"
         inkscape:connector-curvature="0" /></clipPath><clipPath
       id="clipPath356"><path
         id="path358"
         d="m 2,23 16,0 0,5 -16,0 0,-5 z"
         inkscape:connector-curvature="0" /></clipPath><linearGradient
       id="linearGradient386"
       y2="7.6499"
       gradientUnits="userSpaceOnUse"
       x2="22.65"
       gradientTransform="matrix(0.8,0,0,-0.8,3.5474e-7,32.331)"
       y1="7.6499"
       x1="1.6499"
       xlink:href="#linearGradient466"><stop
         id="stop388"
         style="stop-color:#d6d8ff"
         offset="0" /><stop
         id="stop390"
         style="stop-color:#939aad"
         offset="1" /></linearGradient><linearGradient
       id="linearGradient404"
       y2="8.5"
       gradientUnits="userSpaceOnUse"
       x2="22.65"
       gradientTransform="matrix(0.8,0,0,-0.8,3.5474e-7,32.331)"
       y1="8.5"
       x1="2.0497999"><stop
         id="stop406"
         style="stop-color:#8cadde"
         offset="0" /><stop
         id="stop408"
         style="stop-color:#516d96"
         offset="1" /></linearGradient><clipPath
       id="clipPath416"><path
         id="path418"
         d="m 2,24.331 15,0 0,4 -15,0 0,-4 z"
         inkscape:connector-curvature="0" /></clipPath><mask
       id="mask420"><g
         id="g422"><g
           id="g424"
           clip-path="url(#clipPath416)"><path
             id="path426"
             style="fill:#000000;fill-opacity:0.48830004"
             d="m 2,24.331 15,0 0,4 -15,0 0,-4 z"
             inkscape:connector-curvature="0" /></g></g></mask><clipPath
       id="clipPath432"><path
         id="path434"
         d="m 2,24.331 15,0 0,4 -15,0 0,-4 z"
         inkscape:connector-curvature="0" /></clipPath><clipPath
       id="clipPath436"><path
         id="path438"
         d="m 2,25 15,0 0,4 -15,0 0,-4 z"
         inkscape:connector-curvature="0" /></clipPath><linearGradient
       id="linearGradient466"
       y2="6.4502001"
       gradientUnits="userSpaceOnUse"
       x2="20.775"
       gradientTransform="matrix(0.8,0,0,-0.8,3.5474e-7,32.331)"
       y1="6.4502001"
       x1="3.2997999"><stop
         id="stop468"
         style="stop-color:#ffe5a3"
         offset="0" /><stop
         id="stop470"
         style="stop-color:#87733d"
         offset="1" /></linearGradient><linearGradient
       id="linearGradient484"
       y2="4.75"
       gradientUnits="userSpaceOnUse"
       x2="20.924999"
       gradientTransform="matrix(0.8,0,0,-0.8,3.5474e-7,32.331)"
       y1="4.75"
       x1="3.25"><stop
         id="stop486"
         style="stop-color:#2b2be2"
         offset="0" /><stop
         id="stop488"
         style="stop-color:#3045ff"
         offset=".32550" /><stop
         id="stop490"
         style="stop-color:#3241f6"
         offset="0.6" /><stop
         id="stop492"
         style="stop-color:#3636e0"
         offset="1" /></linearGradient><linearGradient
       id="linearGradient506"
       y2="-3.0297999"
       gradientUnits="userSpaceOnUse"
       x2="-3.3485"
       gradientTransform="matrix(-0.79784,-0.05872,-0.05872,0.79784,2.4824e-4,32.331)"
       y1="-3.0297999"
       x1="-19.367001"><stop
         id="stop508"
         style="stop-color:#3b5bff"
         offset="0" /><stop
         id="stop510"
         style="stop-color:#3b52ff"
         offset=".81570" /><stop
         id="stop512"
         style="stop-color:#3b4fff"
         offset="1" /></linearGradient><clipPath
       id="clipPath520"><path
         id="path522"
         d="m 3,25.331 9,0 0,2 -9,0 0,-2 z"
         inkscape:connector-curvature="0" /></clipPath><mask
       id="mask524"><g
         id="g526"><g
           id="g528"
           clip-path="url(#clipPath520)"><path
             id="path530"
             style="fill:#000000;fill-opacity:0.48050005"
             d="m 3,25.331 9,0 0,2 -9,0 0,-2 z"
             inkscape:connector-curvature="0" /></g></g></mask><clipPath
       id="clipPath536"><path
         id="path538"
         d="m 3,25.331 9,0 0,2 -9,0 0,-2 z"
         inkscape:connector-curvature="0" /></clipPath><clipPath
       id="clipPath540"><path
         id="path542"
         d="m 3,26 9,0 0,2 -9,0 0,-2 z"
         inkscape:connector-curvature="0" /></clipPath><linearGradient
       id="linearGradient574"
       y2="3.8759999"
       gradientUnits="userSpaceOnUse"
       x2="21.393999"
       gradientTransform="matrix(0.8,0,0,-0.8,3.5474e-7,32.331)"
       y1="3.8759999"
       x1="2.8125"><stop
         id="stop576"
         style="stop-color:#d6d8ff"
         offset="0" /><stop
         id="stop578"
         style="stop-color:#7b8191"
         offset="1" /></linearGradient><linearGradient
       id="linearGradient592"
       y2="4.9502001"
       gradientUnits="userSpaceOnUse"
       x2="21.25"
       gradientTransform="matrix(0.8,0,0,-0.8,3.5474e-7,32.331)"
       y1="4.9502001"
       x1="2.75"><stop
         id="stop594"
         style="stop-color:#8cadde"
         offset="0" /><stop
         id="stop596"
         style="stop-color:#516d96"
         offset="1" /></linearGradient><linearGradient
       id="linearGradient610"
       y2="2.9502001"
       gradientUnits="userSpaceOnUse"
       x2="21.25"
       gradientTransform="matrix(0.8,0,0,-0.8,3.5474e-7,32.331)"
       y1="2.9502001"
       x1="2.75"><stop
         id="stop612"
         style="stop-color:#8cadde"
         offset="0" /><stop
         id="stop614"
         style="stop-color:#516d96"
         offset="1" /></linearGradient><linearGradient
       id="linearGradient628"
       y2="3.7753999"
       gradientUnits="userSpaceOnUse"
       x2="21.25"
       gradientTransform="matrix(0.8,0,0,-0.8,3.5474e-7,32.331)"
       y1="3.7753999"
       x1="2.75"><stop
         id="stop630"
         style="stop-color:#8cadde"
         offset="0" /><stop
         id="stop632"
         style="stop-color:#516d96"
         offset="1" /></linearGradient><linearGradient
       id="linearGradient646"
       y2="4.2997999"
       gradientUnits="userSpaceOnUse"
       x2="21.25"
       gradientTransform="matrix(0.8,0,0,-0.8,3.5474e-7,32.331)"
       y1="4.2997999"
       x1="2.75"><stop
         id="stop648"
         style="stop-color:#8cadde"
         offset="0" /><stop
         id="stop650"
         style="stop-color:#516d96"
         offset="1" /></linearGradient><linearGradient
       id="linearGradient664"
       y2="-2.6933999"
       gradientUnits="userSpaceOnUse"
       x2="-2.2857001"
       gradientTransform="matrix(-0.79816,-0.05472,-0.05472,0.79816,3.6368e-4,32.331)"
       y1="-2.6933999"
       x1="-21.305"><stop
         id="stop666"
         style="stop-color:#d6d8ff"
         offset="0" /><stop
         id="stop668"
         style="stop-color:#939aad"
         offset="1" /></linearGradient><linearGradient
       id="linearGradient682"
       y2="-4.3007998"
       gradientUnits="userSpaceOnUse"
       x2="-2.7196"
       gradientTransform="matrix(-0.74448,-0.29288,-0.29288,0.74448,4.2932e-4,32.331)"
       y1="-4.3007998"
       x1="-15.695"><stop
         id="stop684"
         style="stop-color:#8cadde"
         offset="0" /><stop
         id="stop686"
         style="stop-color:#516d96"
         offset="1" /></linearGradient><linearGradient
       id="linearGradient700"
       y2="-6.5219998"
       gradientUnits="userSpaceOnUse"
       x2="-2.7138"
       gradientTransform="matrix(-0.74448,-0.29288,-0.29288,0.74448,4.2932e-4,32.331)"
       y1="-6.5219998"
       x1="-15.69"><stop
         id="stop702"
         style="stop-color:#8cadde"
         offset="0" /><stop
         id="stop704"
         style="stop-color:#516d96"
         offset="1" /></linearGradient><linearGradient
       id="linearGradient718"
       y2="-8.6260004"
       gradientUnits="userSpaceOnUse"
       x2="-2.7444999"
       gradientTransform="matrix(-0.74448,-0.29288,-0.29288,0.74448,4.2932e-4,32.331)"
       y1="-8.6260004"
       x1="-15.72"><stop
         id="stop720"
         style="stop-color:#8cadde"
         offset="0" /><stop
         id="stop722"
         style="stop-color:#516d96"
         offset="1" /></linearGradient><linearGradient
       inkscape:collect="always"
       xlink:href="#linearGradient4423"
       id="linearGradient4429"
       x1="2.398"
       y1="30.830999"
       x2="16.922001"
       y2="30.830999"
       gradientUnits="userSpaceOnUse" /><linearGradient
       inkscape:collect="always"
       xlink:href="#linearGradient4453"
       id="linearGradient4459"
       x1="2.7620001"
       y1="26.875834"
       x2="16.922001"
       y2="26.875834"
       gradientUnits="userSpaceOnUse" /><linearGradient
       inkscape:collect="always"
       xlink:href="#linearGradient4461"
       id="linearGradient4467"
       x1="1.3200001"
       y1="26.210501"
       x2="18.121"
       y2="26.210501"
       gradientUnits="userSpaceOnUse" /><linearGradient
       inkscape:collect="always"
       xlink:href="#linearGradient4471"
       id="linearGradient4477"
       x1="2.229568"
       y1="29.23077"
       x2="17.094465"
       y2="29.23077"
       gradientUnits="userSpaceOnUse" /><filter
       inkscape:collect="always"
       style="color-interpolation-filters:sRGB"
       id="filter4493"
       x="-0.52369183"
       width="2.0473835"
       y="-0.1187411"
       height="1.2374822"><feGaussianBlur
         inkscape:collect="always"
         stdDeviation="0.99769952"
         id="feGaussianBlur4495" /></filter><linearGradient
       inkscape:collect="always"
       xlink:href="#linearGradient466"
       id="linearGradient4650"
       gradientUnits="userSpaceOnUse"
       gradientTransform="matrix(0.8,0,0,-0.8,3.5474e-7,32.331)"
       x1="3.2997999"
       y1="6.4502001"
       x2="20.775"
       y2="6.4502001" /></defs><g
     id="g10"
     transform="matrix(28.133831,0,0,-26.158942,4.6282307,850.01288)"><g
       id="g12"><g
         id="g4565"><g
           id="g14"><g
             id="g16"><g
               id="g22"><path
                 inkscape:connector-curvature="0"
                 d="m 17.84,24.21 c 0.558,-0.586 0.933,-1.144 1.121,-1.679 0.266,-0.664 0.398,-1.547 0.398,-2.641 0,-1.066 -0.093,-3.625 -0.281,-7.68 C 18.895,8.343 18.762,6.05 18.68,5.331 18.598,4.476 18.227,3.652 17.559,2.851 16.68,1.757 15.387,0.968 13.68,0.492 12.32,0.117 10.988,-0.044 9.68,0.011 8.375,-0.044 7.027,0.117 5.641,0.492 3.934,0.972 2.641,1.757 1.762,2.851 1.094,3.652 0.734,4.476 0.68,5.331 0.602,6.05 0.465,8.343 0.281,12.21 0.094,16.265 0,18.824 0,19.89 c 0,1.094 0.133,1.973 0.398,2.641 0.188,0.507 0.547,1.066 1.082,1.679 0.961,1.016 1.692,2 2.2,2.961 l 6,-0.32 6,0.32 c 0.558,-1.011 1.281,-2 2.16,-2.961 z"
                 style="fill:#403233;fill-opacity:1;fill-rule:evenodd"
                 id="path30" /></g></g></g><g
           id="g32"><g
             id="g34"><g
               id="g40"><path
                 inkscape:connector-curvature="0"
                 d="m 17.281,24.05 c 0.508,-0.586 0.867,-1.133 1.078,-1.64 0.215,-0.637 0.321,-1.493 0.321,-2.559 0,-0.984 -0.094,-3.481 -0.282,-7.481 C 18.238,8.824 18.133,6.597 18.078,5.691 18,4.839 17.652,4.038 17.039,3.292 16.188,2.226 14.961,1.464 13.359,1.011 12.078,0.636 10.828,0.476 9.602,0.531 8.375,0.476 7.121,0.636 5.84,1.011 4.238,1.464 3.027,2.226 2.199,3.292 1.559,4.066 1.215,4.867 1.16,5.691 1.105,6.359 0.988,8.585 0.801,12.37 0.613,16.292 0.52,18.785 0.52,19.851 c 0,1.066 0.121,1.922 0.359,2.559 0.187,0.507 0.535,1.054 1.043,1.64 0.957,1.043 1.637,2 2.039,2.883 l 5.641,-0.32 5.636,0.32 c 0.535,-0.988 1.215,-1.949 2.043,-2.883 z"
                 style="fill:url(#linearGradient42);fill-rule:evenodd"
                 id="path48" /></g></g></g><path
           sodipodi:nodetypes="cccccccccccccccccccccccccccccccccccccccccccccccccccccccccccccccccccccccccccccccccccccccccccccccccccccccccccccccccccccccccccccccccccccccccccccccccccccccccccc"
           inkscape:connector-curvature="0"
           id="path4521"
           d="m 3.0409734,22.820179 c 4.1220998,-0.534435 8.1840896,-1.432255 12.2296296,-2.369326 0.603736,-0.201959 1.942845,-0.248764 2.091306,-0.51245 -0.744791,-0.764261 -1.675615,-1.231372 -2.75912,-1.013695 -2.388196,-0.148315 -4.8040857,-1.171704 -7.1851177,-0.403234 -0.9390166,0.308019 -1.9407181,0.483499 -2.8179977,0.939918 0.032203,0.596451 1.2071075,1.166706 1.8977364,1.281164 1.5609087,0.152606 3.2226199,0.264015 4.676801,-0.455702 C 11.4874,19.478437 9.9043121,19.116533 9.2780431,18.829485 6.1424735,18.202364 4.5681535,17.954591 1.4252652,17.371755 c 0.7430126,0.554446 -0.1601682,1.468726 0.8775142,1.170578 1.9215437,-0.144991 3.8499855,-0.42598 5.6920803,-0.996193 0.9995289,-0.139344 2.0218723,-0.118575 3.0105733,-0.365206 1.050583,-0.219409 2.094319,-0.471873 3.173295,-0.467411 0.694412,0.10682 1.817167,-0.416761 0.798381,-0.999692 -1.346119,-0.701033 -2.819072,-1.094537 -4.24833,-1.590294 0.706501,0.459888 1.281869,1.370963 2.24953,1.171445 1.126043,-0.02408 2.262206,-0.07303 3.360589,-0.342644 C 16.120479,14.155491 14.978314,13.761575 14.233469,13.472622 13.0072,12.955314 11.663358,12.883145 10.389805,12.526097 9.909347,12.442937 8.6447963,12.11935 9.7440035,12.642888 10.064268,12.860969 10.959385,13.36311 10.16034,12.866872 9.4715691,12.286222 8.5901728,12.052222 7.7068699,12.143474 6.3089307,12.029556 4.9010074,12.110734 3.5108203,12.18895 c 0.483077,0.946315 1.7552881,1.321796 2.8376651,1.119902 2.3061686,0.07294 4.6140456,0.04164 6.9208916,0.07693 0.625472,-0.752391 -0.305047,-3.020532 -1.202931,-1.811742 -0.625373,1.079348 0.927474,1.750719 1.77986,1.485169 0.916138,-0.544165 2.036789,-0.52461 2.8962,-1.166592 0.642184,-0.272907 1.718831,-0.709232 0.787182,-1.460605 -1.370231,-1.2813279 -1.838568,1.247274 -2.159285,2.191243 -0.249892,1.153759 0.155078,2.573463 -0.78474,3.492811 0.0193,1.02788 0.44305,1.339556 1.271143,1.122351 0.894232,-0.275039 2.551802,-0.557027 2.105097,-1.864776 -0.225115,-1.172291 -1.273418,-0.709034 -1.654586,0.04202 -1.143324,0.673609 -1.275832,1.216331 -2.090126,2.318459 -0.362073,0.54449 -1.163859,0.88659 -0.143566,1.166358 0.493788,0.232112 1.247135,1.231934 0.724112,0.154715 -0.09037,-1.511092 -0.209182,-3.046798 0.08162,-4.547216 0.29857,-2.076267 1.188839,-4.045147 1.257687,-6.1548213 0.147676,-0.8815874 -0.265821,-2.2005183 -1.4187,-1.7200724 -0.453165,0.3530479 -1.755185,0.2807767 -1.838362,0.6047661 0.633974,0.4279697 1.444901,1.057602 1.784823,-0.010419 0.608604,-0.4598579 1.727381,-1.1229651 0.429495,-1.6001533 -0.859168,-0.7984028 -2.124356,-0.6078 -3.191178,-0.8072218 -0.521657,0.00838 -1.640882,-0.3176598 -1.709869,-0.446418 0.672222,0.2118001 1.708329,1.6784591 2.022925,0.3573673 C 13.116301,3.6496894 14.586748,3.3917089 15.82842,2.8961662 15.660557,1.9926213 14.27675,1.6490186 13.414869,2.0873265 11.512971,2.3199014 9.5667078,1.9723895 7.67851,2.3133546 6.6125718,2.8256106 5.6378653,3.524982 4.5028773,3.8992966 3.744109,4.3298405 2.7492358,4.5496877 2.1200048,5.0685389 2.9203464,5.9834207 4.1456419,6.3411212 5.3623616,6.0526552 7.4135709,5.9896373 9.1518278,4.6955181 11.162642,4.4302873 11.599044,4.3678841 13.274607,4.1463774 12.108238,3.7012284 11.403389,2.8899668 10.236964,3.033605 9.6710699,3.9081944 8.6640336,4.7051302 7.5660058,5.4494202 6.8843125,6.5680662 6.1661748,7.5809917 5.0866996,8.3084878 4.185709,9.0709436 4.5762581,9.8997405 5.8938922,10.131756 6.6550287,9.6316978 8.0053386,8.8875453 9.3671309,8.13912 10.815434,7.5984362 11.368149,7.3070896 9.7218601,6.8318632 9.4842873,6.7644882 8.4571266,7.6026208 7.9726687,8.9207401 7.0051235,9.8263444 6.3150014,10.47476 4.4699402,11.852949 6.1730145,12.434512 c 1.3048626,0.337016 2.5386512,-0.427073 3.7976291,-0.655481 1.2310834,-0.343388 2.4909234,-0.594266 3.7215544,-0.924547 -0.591154,-0.405449 -1.66725,-1.2932171 -1.764699,0.0094 -0.326032,0.868051 -0.855594,1.641653 -1.178232,2.518274 -0.399188,0.915792 -0.7781612,1.840579 -1.2003454,2.746207 0.050589,1.347622 1.5310804,2.114151 1.5936374,3.466249 0.12198,0.730437 1.60573,1.059504 1.600843,1.311792 -0.353124,-0.163076 -1.460355,-0.824568 -1.204937,-0.785191 0.876569,0.637538 1.855606,1.153924 2.963881,0.897942 0.507122,0.118349 0.987806,0.01057 0.237349,-0.256854 -0.348718,-0.242623 -1.416583,-0.859416 -1.295234,-0.879495 0.861327,0.417668 0.736759,2.038591 -0.332899,2.046435 -1.030376,-0.01963 -2.058302,-0.0076 -3.08842,0.08321 -1.056376,0.108487 -2.1525084,0.204252 -3.154324,0.527908 -0.1381343,1.196723 1.8324052,1.187038 2.569395,0.597974 0.978811,-0.584704 2.477494,-0.501096 3.240453,-1.213701 l -1.466551,-0.997231 c -1.2481528,0.726041 -2.8102178,0.660383 -4.0079343,1.495761 -0.88615,-0.04357 0.9670316,0.416777 0.9780619,0.853516 0.7668556,0.594973 1.7882977,-0.211269 2.6808844,-0.12523 1.28724,-0.131673 2.582805,-0.09764 3.874552,-0.119491 1.147585,-0.396298 1.165942,-2.313998 0.0034,-2.720155 -0.933876,-0.631945 -2.057345,-0.318729 -3.093978,-0.452312 0.226875,0.277171 2.04155,1.307636 0.862639,0.52684 -0.409598,-0.307944 -1.606483,-0.911402 -0.589636,-0.302296 0.434981,0.30064 1.255157,0.914498 0.742166,-0.04487 -0.345345,-1.009107 -0.895145,-1.950081 -1.618602,-2.734876 0.755276,-2.181539 1.85617,-4.213699 2.786202,-6.319955 -0.0992,-0.835735 1.421286,0.309503 0.306794,-0.180867 -0.957843,-0.591812 -1.977441,-1.3841792 -3.129968,-0.707738 -1.7786596,0.468254 -3.5844571,0.922155 -5.3555782,1.362757 0.6532979,0.27213 1.4532114,1.313827 1.863164,0.321195 C 8.8350694,10.584875 9.8313683,9.1015508 10.901187,7.6919547 10.605416,6.7520802 9.3590635,6.1484917 8.5098101,6.8760267 7.1309387,7.4969342 5.8499797,8.3295066 4.4345463,8.8664007 4.5043948,9.3004364 5.6863268,9.6780191 5.8144737,9.9245511 7.2816108,9.0499373 8.2592834,7.6118294 9.3752461,6.3689309 10.290797,5.5414519 11.359461,4.7612362 12.328239,4.0934456 11.761744,3.097126 10.777823,2.8965445 9.7513936,3.3422232 8.3560003,3.5511608 7.0844625,4.1630642 5.768035,4.6310781 4.7180925,5.1042658 2.8534645,4.8636938 2.2110043,5.0513928 2.7312382,5.5768625 3.2810729,6.7798751 4.0605411,5.8241227 5.6255619,5.1312631 7.224886,4.5038144 8.6832114,3.5990064 9.7727159,3.0859693 11.03279,3.3257758 12.199343,3.2865912 c 1.205415,0.011778 2.451831,0.053214 3.610436,-0.3213723 0.03146,-0.525008 -1.109039,-1.1525628 -1.549969,-1.0933045 -1.427721,0.5365241 -3.2125,0.9417189 -3.915907,2.4554346 0.06812,1.0192989 1.450089,1.270078 2.262623,1.532739 1.107805,0.1810052 2.265578,0.1389389 3.324215,0.5581725 C 15.109894,6.0575264 14.22898,4.7662661 13.436652,5.9379529 12.18766,6.571308 12.573616,8.3769076 14.038434,8.2326383 14.639042,8.219699 15.800303,8.021401 15.949004,7.6009078 15.544364,6.8807821 14.08432,6.1395541 14.546826,7.5803546 c -0.008,1.8749751 -0.780202,3.6289994 -1.091986,5.4577304 -0.406009,1.787112 -0.370253,3.653533 -0.224963,5.458629 0.574067,0.947738 2.045273,1.577033 2.550762,0.215705 0.560876,-1.168947 1.119074,-1.137692 1.41773,-2.439483 0.272587,-0.588604 0.261817,-2.180345 -0.694929,-1.335415 -0.751503,0.679977 -0.446849,1.366161 -1.52909,1.27678 -0.131169,0.01533 0.294563,1.564216 0.361886,0.344574 0.70503,-1.382547 1.143285,-3.127323 2.080625,-4.43053 1.040373,-1.003399 -0.311854,-1.564011 -1.040086,-2.081159 -0.664228,-0.4255822 -0.121219,-0.3273542 -0.055,0.179604 -0.667203,0.490992 -1.456578,0.892406 -2.261029,1.160416 -0.637263,0.2601 -1.784634,0.450156 -2.069736,0.844159 0.464541,0.140842 1.950987,1.061951 0.848834,1.191172 -0.663813,-0.539222 -1.088156,-1.484364 -2.113962,-1.134706 -2.4782168,0.03338 -4.9552278,-0.07157 -7.4327545,-0.109075 0.8621783,0.744613 1.9224049,1.461709 3.1094551,1.061637 1.3283777,-0.09948 2.659581,0.01569 3.9834864,0.124777 -0.337386,-0.232397 -1.2707194,-0.784657 -1.267132,-0.800991 1.491814,1.242675 3.532367,1.194651 5.314893,1.682447 0.552077,0.01998 1.473078,0.644013 1.768068,0.513865 -0.806776,-0.917253 -1.942202,-0.951736 -3.053591,-0.624869 -0.599199,0.280455 -2.057202,-0.274197 -2.189692,0.234198 0.524451,0.235423 1.20846,1.53419 1.350789,0.988801 0.998174,0.289491 1.966444,0.670998 2.959233,0.976982 l -1.32497,-0.963729 c -1.099973,0.381615 -2.306321,0.143389 -3.410344,0.534019 -1.3284415,0.323559 -2.7101545,0.396695 -4.0521409,0.561216 -1.5542686,0.582545 -3.2311547,0.703006 -4.8579415,0.942302 -0.6005911,-0.02505 -0.77623343,0.724337 0.4221622,1.59544 0.9120252,0.818827 0.5706819,-0.309287 1.6816386,-0.06807 2.4485626,0.305293 4.912887,0.547853 7.3199136,1.110588 -0.742965,-0.380112 -1.3045619,-1.199025 -2.1318227,-0.525808 -1.39437,0.390431 -2.8514611,0.15985 -4.2612979,0.01432 0.1297049,0.486143 0.9655131,1.584936 1.6734548,0.908477 1.15472,-0.552388 2.424868,-0.826838 3.6805238,-1.046208 2.451368,-0.282342 4.824723,0.915681 7.271432,0.618567 -0.477858,-0.748354 -1.500631,-1.282069 -2.427642,-0.858938 -4.199366,1.020996 -8.4304099,2.001178 -12.7360094,2.466665 -1.23763215,0.05444 0.8456806,0.942131 0.9253828,1.195732 z"
           style="opacity:0.28200001;fill:#be4649;fill-opacity:1;stroke:none;stroke-width:2;stroke-linecap:round;stroke-linejoin:round;stroke-miterlimit:4;stroke-dasharray:none;stroke-opacity:1" /><g
           id="g50"><g
             id="g52"><g
               id="g58"><path
                 inkscape:connector-curvature="0"
                 d="m 0.961,16.812 c 0.906,-0.402 2.664,-0.668 5.277,-0.801 3.336,-0.187 5.934,-0.148 7.801,0.121 L 13.52,5.933 C 13.145,5.773 12.574,5.624 11.801,5.492 10.281,5.253 8.559,5.183 6.641,5.292 5.066,5.37 3.734,5.663 2.641,6.171 L 1.52,6.89 0.961,16.812 Z"
                 style="fill:url(#linearGradient60);fill-rule:evenodd"
                 id="path66" /></g></g></g><g
           id="g332"><g
             mask="url(#mask340)"
             id="g348"><g
               id="g360"><g
                 clip-path="url(#clipPath352)"
                 id="g362"><g
                   transform="translate(0,-0.66858)"
                   id="g364"><g
                     id="g368"><g
                       clip-path="url(#clipPath356)"
                       id="g370"><g
                         id="g372"><path
                           inkscape:connector-curvature="0"
                           d="m 16.441,26.879 c 0.133,-0.453 0.532,-1.067 1.2,-1.84 C 17.266,24.641 16.812,24.293 16.281,24 15.984,23.84 15.52,23.719 14.879,23.641 14.078,23.535 13.602,23.453 13.441,23.398 13.094,23.293 12.625,23.266 12.039,23.32 c -0.691,0.078 -1.211,0.133 -1.559,0.16 -0.16,0 -0.601,0.133 -1.32,0.399 -0.668,0.215 -1.574,0.348 -2.719,0.402 -1.066,0.051 -1.828,0.184 -2.281,0.399 -0.027,0 -0.293,0.199 -0.801,0.601 -0.32,0.266 -0.734,0.371 -1.238,0.321 0.426,0.773 0.813,1.371 1.16,1.796 l 0,0.204 c 8.637,0 13.024,-0.243 13.16,-0.723 z"
                           style="fill:#333362;fill-rule:evenodd"
                           id="path374" /></g></g></g></g></g></g></g></g><g
           id="g376"><g
             id="g378"><g
               id="g384"><path
                 inkscape:connector-curvature="0"
                 d="m 16.359,27.37 c 0.161,-0.503 0.508,-0.851 1.039,-1.039 0.27,-0.105 0.508,-0.144 0.723,-0.121 0,-0.132 -0.055,-0.277 -0.16,-0.437 -0.133,-0.27 -0.426,-0.414 -0.883,-0.442 -0.156,0 -0.332,-0.093 -0.519,-0.281 -0.161,-0.183 -0.371,-0.277 -0.637,-0.277 -0.668,0 -1.336,-0.067 -2,-0.203 -0.242,-0.051 -0.629,-0.211 -1.16,-0.477 -0.481,-0.242 -0.84,-0.363 -1.082,-0.363 -0.641,0.109 -1.094,0.137 -1.36,0.082 -0.453,-0.055 -0.906,0 -1.359,0.16 -1.016,0.348 -2.016,0.398 -3,0.16 -0.801,-0.187 -1.574,0.012 -2.32,0.598 -0.293,0.215 -0.586,0.336 -0.879,0.363 -0.348,0 -0.574,0.039 -0.684,0.117 -0.183,0.133 -0.371,0.336 -0.558,0.602 l -0.2,0.359 c 0.692,0.239 1.16,0.481 1.399,0.719 0.242,0.215 0.48,0.816 0.722,1.801 C 5.52,28.663 7.625,28.597 9.762,28.492 14,28.253 16.199,27.878 16.359,27.37 Z"
                 style="fill:#d6d6d6;fill-opacity:1;fill-rule:evenodd"
                 id="path392" /><path
                 id="path4451"
                 style="fill:url(#linearGradient4467);fill-opacity:1;fill-rule:evenodd"
                 d="m 16.359,27.37 c 0.161,-0.503 0.508,-0.851 1.039,-1.039 0.27,-0.105 0.508,-0.144 0.723,-0.121 0,-0.132 -0.055,-0.277 -0.16,-0.437 -0.133,-0.27 -0.426,-0.414 -0.883,-0.442 -0.156,0 -0.332,-0.093 -0.519,-0.281 -0.161,-0.183 -0.371,-0.277 -0.637,-0.277 -0.668,0 -1.336,-0.067 -2,-0.203 -0.242,-0.051 -0.629,-0.211 -1.16,-0.477 -0.481,-0.242 -0.84,-0.363 -1.082,-0.363 -0.641,0.109 -1.094,0.137 -1.36,0.082 -0.453,-0.055 -0.906,0 -1.359,0.16 -1.016,0.348 -2.016,0.398 -3,0.16 -0.801,-0.187 -1.574,0.012 -2.32,0.598 -0.293,0.215 -0.586,0.336 -0.879,0.363 -0.348,0 -0.574,0.039 -0.684,0.117 -0.183,0.133 -0.371,0.336 -0.558,0.602 l -0.2,0.359 c 0.692,0.239 1.16,0.481 1.399,0.719 0.242,0.215 0.48,0.816 0.722,1.801 C 5.52,28.663 7.625,28.597 9.762,28.492 14,28.253 16.199,27.878 16.359,27.37 Z"
                 inkscape:connector-curvature="0" /></g></g></g><g
           id="g412"><g
             mask="url(#mask420)"
             id="g428"><g
               id="g440"><g
                 clip-path="url(#clipPath432)"
                 id="g442"><g
                   transform="translate(0,-0.66858)"
                   id="g444"><g
                     id="g448"><g
                       clip-path="url(#clipPath436)"
                       id="g450"><g
                         id="g452"><path
                           inkscape:connector-curvature="0"
                           d="m 16.602,27.602 c 0.132,-0.215 0.238,-0.403 0.32,-0.563 0,-0.051 -0.067,-0.144 -0.203,-0.277 -0.106,-0.16 -0.293,-0.27 -0.559,-0.321 -0.375,-0.082 -0.719,-0.148 -1.039,-0.203 -1.441,-0.133 -2.336,-0.277 -2.68,-0.437 -0.48,-0.215 -1,-0.348 -1.562,-0.403 -0.133,-0.023 -0.371,0.028 -0.719,0.161 -0.426,0.16 -0.785,0.296 -1.078,0.402 C 8.227,26.199 7.414,26.16 6.641,25.84 6.16,25.652 5.773,25.762 5.48,26.16 c -0.054,0.078 -0.32,0.16 -0.8,0.238 -0.481,0.055 -0.813,0.176 -1,0.364 -0.614,0.504 -0.918,1.039 -0.918,1.597 8.984,-0.078 13.597,-0.332 13.84,-0.757 z"
                           style="fill:url(#linearGradient4459);fill-rule:evenodd"
                           id="path454" /></g></g></g></g></g></g></g></g><g
           id="g456"><g
             id="g458"><g
               id="g464"><path
                 inkscape:connector-curvature="0"
                 d="m 16.641,27.171 c 0,-0.453 -0.68,-0.84 -2.039,-1.16 -1.364,-0.32 -3.016,-0.48 -4.961,-0.48 -1.922,0 -3.563,0.16 -4.922,0.48 -1.387,0.32 -2.078,0.707 -2.078,1.16 0,0.453 0.691,0.84 2.078,1.16 1.359,0.321 3,0.481 4.922,0.481 1.918,0 3.574,-0.16 4.961,-0.481 1.359,-0.32 2.039,-0.707 2.039,-1.16 z"
                 style="fill:url(#linearGradient4650);fill-rule:evenodd"
                 id="path472" /></g></g></g><g
           id="g474"><g
             id="g476"><g
               id="g482"><path
                 inkscape:connector-curvature="0"
                 d="m 16.762,30.652 0,-2.84 C 16.707,27.464 16,27.144 14.641,26.851 13.199,26.558 11.547,26.41 9.68,26.41 c -1.868,0 -3.52,0.148 -4.961,0.441 -1.36,0.293 -2.067,0.613 -2.117,0.961 l 0,2.84 14.16,0 z"
                 style="fill:url(#linearGradient484);fill-rule:evenodd"
                 id="path494" /></g></g></g><g
           id="g496"><g
             id="g498"><g
               id="g504"><path
                 inkscape:connector-curvature="0"
                 d="m 16.719,30.613 c 0,-0.375 -0.692,-0.696 -2.078,-0.961 -1.364,-0.266 -3.016,-0.399 -4.961,-0.399 -1.973,0 -3.641,0.133 -5,0.399 -1.387,0.265 -2.082,0.586 -2.082,0.961 0,0.371 0.695,0.691 2.082,0.957 1.359,0.269 3.027,0.402 5,0.402 1.945,0 3.597,-0.133 4.961,-0.402 1.386,-0.266 2.078,-0.586 2.078,-0.957 z"
                 style="fill:url(#linearGradient506);fill-rule:evenodd"
                 id="path514" /></g></g></g><g
           id="g516"><g
             mask="url(#mask524)"
             id="g532"><g
               id="g544"><g
                 clip-path="url(#clipPath536)"
                 id="g546"><g
                   transform="translate(0,-0.66858)"
                   id="g548"><g
                     id="g552"><g
                       clip-path="url(#clipPath540)"
                       id="g554"><g
                         id="g556"><path
                           inkscape:connector-curvature="0"
                           d="m 3.801,27.16 c 0.504,-0.16 1.332,-0.32 2.48,-0.48 1.438,-0.215 3.028,-0.321 4.758,-0.321 -0.055,-0.132 -0.918,-0.16 -2.598,-0.078 -2.136,0.078 -3.722,0.305 -4.761,0.68 -0.188,0.078 -0.254,0.144 -0.2,0.199 0.055,0.055 0.161,0.055 0.321,0 z"
                           style="fill:#ffffff;fill-rule:evenodd"
                           id="path558" /></g></g></g></g></g></g></g></g><path
           inkscape:connector-curvature="0"
           d="M 3.641,2.89 C 4.199,2.597 4.535,2.292 4.641,1.972 4.746,1.679 4.68,1.531 4.441,1.531 4.094,1.531 3.586,1.839 2.922,2.453 2.625,2.745 2.602,2.933 2.84,3.011 3.078,3.117 3.348,3.078 3.641,2.89 Z"
           style="fill:#e3734d;fill-opacity:1;fill-rule:evenodd"
           id="path560" /><path
           inkscape:connector-curvature="0"
           d="M 5.762,1.812 C 6.16,1.73 6.266,1.585 6.078,1.37 5.895,1.16 5.734,1.117 5.602,1.253 5.465,1.359 5.398,1.492 5.398,1.652 5.375,1.812 5.492,1.867 5.762,1.812 Z"
           style="fill:#e3734d;fill-opacity:1;fill-rule:evenodd"
           id="path562" /><g
           id="g564"><g
             id="g566"><g
               id="g572"><path
                 inkscape:connector-curvature="0"
                 d="M 16.719,27.492 C 16.48,27.171 15.852,26.89 14.84,26.652 13.48,26.331 11.68,26.16 9.441,26.132 c -3.015,-0.027 -5.281,0.321 -6.8,1.039 -0.243,0.106 -0.375,0.586 -0.403,1.442 -0.023,0.718 0,1.32 0.082,1.797 0.078,0.453 0.614,0.867 1.602,1.242 1.25,0.453 3.023,0.679 5.316,0.679 2.508,0 4.457,-0.199 5.84,-0.601 1.254,-0.371 1.91,-0.852 1.961,-1.438 0.133,-1.386 0.027,-2.32 -0.32,-2.8 z"
                 style="fill:#d6d6d6;fill-opacity:1;fill-rule:evenodd"
                 id="path580" /><path
                 id="path4469"
                 style="fill:url(#linearGradient4477);fill-opacity:1;fill-rule:evenodd"
                 d="M 16.719,27.492 C 16.48,27.171 15.852,26.89 14.84,26.652 13.48,26.331 11.68,26.16 9.441,26.132 c -3.015,-0.027 -5.281,0.321 -6.8,1.039 -0.243,0.106 -0.375,0.586 -0.403,1.442 -0.023,0.718 0,1.32 0.082,1.797 0.078,0.453 0.614,0.867 1.602,1.242 1.25,0.453 3.023,0.679 5.316,0.679 2.508,0 4.457,-0.199 5.84,-0.601 1.254,-0.371 1.91,-0.852 1.961,-1.438 0.133,-1.386 0.027,-2.32 -0.32,-2.8 z"
                 inkscape:connector-curvature="0" /></g></g></g><g
           id="g654"><g
             id="g656"><g
               id="g662"><path
                 inkscape:connector-curvature="0"
                 d="m 9.762,29.331 c -3.657,0 -6.11,0.414 -7.364,1.239 0.215,0.457 0.817,0.84 1.801,1.16 1.227,0.402 2.906,0.601 5.039,0.601 4.43,0 6.989,-0.558 7.684,-1.679 -1.121,-0.879 -3.508,-1.321 -7.16,-1.321 z"
                 style="fill:url(#linearGradient4429);fill-opacity:1;fill-rule:evenodd"
                 id="path670" /></g></g></g><g
           id="text4479"
           style="font-style:normal;font-weight:normal;font-size:4.7089653px;line-height:125%;font-family:sans-serif;letter-spacing:0px;word-spacing:0px;fill:#000000;fill-opacity:1;stroke:#000000;stroke-width:0.07806644;stroke-linecap:butt;stroke-linejoin:miter;stroke-miterlimit:4;stroke-dasharray:none;stroke-opacity:1"
           transform="matrix(0.86600187,-0.11766082,-0.13350594,-1.1365929,0,0)"><path
             inkscape:connector-curvature="0"
             id="path4511"
             style="font-style:normal;font-variant:normal;font-weight:normal;font-stretch:normal;font-family:Times;-inkscape-font-specification:Times;fill:#d87f28;fill-opacity:1;stroke:#945e32;stroke-width:0.07806644;stroke-miterlimit:4;stroke-dasharray:none;stroke-opacity:1"
             d="m 4.9415452,-9.8867928 0,-0.8947032 -2.1284523,-0.0047 0,0.9041212 q 0.080052,0.0047 0.1977765,0.0047 0.1177242,0 0.282538,0.0047 0.1648138,0.0047 0.2919558,0.0047 0.131851,0 0.2401572,0 0.3155007,0 0.5980386,-0.0047 0.2872469,-0.0047 0.5179862,-0.01413 z m 0.3107917,0.334337 -0.3013737,0.023545 0.00942,-0.1177242 -1.2102041,0.014127 q -0.1930676,0 -0.3343365,0 -0.141269,0 -0.2448662,-0.00471 -0.094179,0 -0.1883586,-0.00471 -0.094179,0 -0.1883587,-0.00471 l -0.00942,0.094179 -0.3060827,0.023545 0.018836,-0.607457 0,-0.889994 1.2949655,0.0094 0.8476137,0 q 0.1553959,-0.0047 0.3060828,-0.0047 0.1553958,-0.0047 0.3060827,-0.0094 l 0,1.4786151 z M 3.9102818,-13.333755 q -0.00942,0.0518 -0.018836,0.103597 -0.00471,0.04709 -0.014127,0.09889 -0.061217,0.258993 -0.1695228,0.50386 -0.1553958,0.343754 -0.4332248,0.654546 -0.3060827,0.339045 -0.7063448,0.593329 -0.3013738,0.178941 -0.5980386,0.282538 -0.2119034,0.07534 -0.2542841,0.07534 -0.014127,-0.0094 -0.1177241,-0.131851 -0.014127,-0.01884 -0.037672,-0.04238 -0.023545,-0.02825 -0.056507,-0.06593 0.00942,-0.02355 0.018836,-0.02355 0.1130152,-0.02355 0.2071945,-0.04238 0.094179,-0.02354 0.1695227,-0.04709 0.4473517,-0.160104 0.814651,-0.442642 0.3155007,-0.244866 0.5274041,-0.569785 0.075343,-0.117724 0.1318511,-0.235448 0.056508,-0.117724 0.1035972,-0.240158 0.014127,-0.0518 0.028254,-0.09889 0.014127,-0.04709 0.028254,-0.09889 l -0.95592,0 q -0.2071944,0 -0.4332248,0.0047 -0.2213213,0.0047 -0.4096799,0.01413 l 0,-0.287247 q 0.084761,0.0047 0.1977765,0.0047 0.1130152,0 0.2542841,0.0047 0.1459779,0.0047 0.2354483,0.0047 0.08947,0 0.1224331,0 l 1.3655999,-0.01884 z m 1.3844358,-0.306083 q 0,0.0047 -0.018836,0.07063 -0.018836,0.06122 -0.018836,0.127142 -0.00471,0.06593 -0.00471,0.174231 0,0.103598 -0.00471,0.258993 -0.00471,0.150687 -0.00471,0.306083 0,0.155396 0,0.310792 l 0,0.828778 q 0.00471,0.178941 0.014127,0.306083 l -0.3296276,0.0047 q 0.00942,-0.211904 0.00942,-0.470897 0.00471,-0.263702 0.00471,-0.536822 l 0,-0.202486 q 0,-0.282537 -0.00471,-0.485023 0,-0.207194 -0.00471,-0.334336 -0.00471,-0.127143 -0.00942,-0.235449 0,-0.108306 -0.00942,-0.202485 0.1224331,0 0.2495752,0.01413 0.131851,0.01413 0.131851,0.06593 z" /><path
             inkscape:connector-curvature="0"
             id="path4513"
             style="font-style:normal;font-variant:normal;font-weight:normal;font-stretch:normal;font-family:Times;-inkscape-font-specification:Times;fill:#d87f28;fill-opacity:1;stroke:#945e32;stroke-width:0.07806644;stroke-miterlimit:4;stroke-dasharray:none;stroke-opacity:1"
             d="m 9.2039618,-11.166118 q -0.014127,0.0094 -0.028254,0.02354 -0.018836,0.01413 -0.037672,0.03767 -0.018836,0.02355 -0.042381,0.05651 -0.023545,0.02355 -0.061216,0.06593 -0.037672,0.04238 -0.065926,0.06593 -0.061217,-0.03767 -0.122433,-0.07063 -0.061217,-0.03296 -0.1177242,-0.07063 -0.070635,-0.0518 -0.1459779,-0.113015 -0.075344,-0.06122 -0.1648138,-0.141269 -0.098888,-0.09418 -0.1883586,-0.202486 -0.08947,-0.113015 -0.1601048,-0.240157 -0.023545,-0.04238 -0.051799,-0.09418 -0.028254,-0.05651 -0.056508,-0.127142 -0.056508,0.117724 -0.1083062,0.193067 -0.075343,0.122433 -0.1742317,0.235448 -0.094179,0.113016 -0.2071945,0.221322 -0.1648138,0.155396 -0.4238069,0.320209 -0.04709,0.02825 -0.1035972,0.06593 -0.056508,0.03296 -0.13656,0.08005 l -0.1648138,-0.113015 q -0.037672,-0.02355 -0.065925,-0.03767 -0.028254,-0.01413 -0.04709,-0.02354 -0.00942,-0.0047 -0.032963,-0.02825 0.00942,-0.0047 0.014127,-0.0047 0.00471,0 0.00942,-0.0047 0.014127,-0.0047 0.051799,-0.03296 0.094179,-0.0518 0.1695228,-0.09418 0.075343,-0.04709 0.13656,-0.08476 0.3484634,-0.221322 0.5744937,-0.485024 0.2071945,-0.235448 0.2966648,-0.503859 0.056508,-0.188359 0.056508,-0.353173 l 0,-0.09418 -0.4426427,-0.0094 q -0.1836497,0 -0.3672993,0.0094 -0.1836497,0.0094 -0.3343365,0.01884 l 0,-0.296665 q 0.070634,0 0.1601048,0 0.08947,0 0.1836496,0.0047 0.094179,0 0.1883586,0 0.094179,0 0.1742317,0 0.145978,0 0.3578814,0 0.2166124,-0.0047 0.5132772,-0.0094 0.5839117,-0.01413 0.8758676,-0.01413 l 0,0.296665 -0.54624,-0.0094 -0.4285158,0.0094 q 0,0.155396 0.014127,0.291956 0.018836,0.131851 0.056508,0.254284 0.042381,0.117724 0.1035973,0.230739 0.065926,0.108307 0.1648138,0.221322 0.1601048,0.193067 0.4473517,0.376717 0.042381,0.03296 0.1035972,0.07063 0.065925,0.03767 0.1459779,0.08005 l 0.023545,0.02355 q 0,0.0047 0.00471,0.0047 z m 0.8947032,-2.910141 q 0,0.04238 -0.0047,0.05651 -0.02355,0.117724 -0.02355,0.13656 l 0.01413,3.9602399 -0.3484631,0 0.014127,-2.0719449 q 0,-1.144279 -0.014127,-1.539832 -0.00471,-0.390844 -0.014127,-0.626292 l 0.070635,0 q 0.1224331,0 0.2119031,0.01884 0.09418,0.01883 0.09418,0.06593 z m -1.6622645,0.631001 -0.5132772,-0.0047 -0.4944414,0.01413 0,-0.306082 0.4803145,0.01413 q 0.1977765,0 0.3249186,-0.0047 0.131851,-0.0047 0.2024855,-0.01413 l 0,0.301373 z" /></g><g
           id="text4483"
           style="font-style:normal;font-weight:normal;font-size:3.10370612px;line-height:125%;font-family:sans-serif;letter-spacing:0px;word-spacing:0px;fill:#000000;fill-opacity:1;stroke:#000000;stroke-width:0.05145404;stroke-linecap:butt;stroke-linejoin:miter;stroke-miterlimit:4;stroke-dasharray:none;stroke-opacity:1"
           transform="matrix(0.77222504,-0.09315828,-0.13337864,-1.278869,0,0)"><path
             id="path4498"
             style="font-style:normal;font-variant:normal;font-weight:normal;font-stretch:normal;font-family:Times;-inkscape-font-specification:Times;fill:#d87f28;fill-opacity:1;stroke:#945e32;stroke-width:0.05145404;stroke-miterlimit:4;stroke-dasharray:none;stroke-opacity:1"
             d="m 1.5895761,-5.767655 q 0.1894352,-0.015155 0.2348996,-0.066681 0.045465,-0.053042 0.045465,-0.2500544 l 0,-1.3442321 q 0,-0.1682185 -0.051526,-0.2167139 -0.050011,-0.050011 -0.2288377,-0.062135 l 0,-0.057588 0.8850412,0 0,0.057588 q -0.1818578,0.00909 -0.2348996,0.060619 -0.053042,0.051526 -0.053042,0.2182294 l 0,0.6365022 q 0.286426,-0.2439925 0.4682838,-0.4152419 0.3258285,-0.3106737 0.3258285,-0.3985717 0,-0.062135 -0.056073,-0.081836 -0.054557,-0.019701 -0.1560946,-0.019701 l 0,-0.057588 0.8122981,0 0,0.050011 q -0.1485172,0.015155 -0.2348996,0.059104 -0.084867,0.043949 -0.2364151,0.1924662 l -0.5895223,0.5773985 0.7228846,0.7804729 q 0.2015591,0.2167139 0.2743022,0.2712712 0.072743,0.053042 0.2136829,0.069712 l 0,0.053042 -0.9486914,0 0,-0.056073 q 0.1288159,-0.00455 0.1742803,-0.019701 0.045465,-0.01667 0.045465,-0.06365 0,-0.025763 -0.03031,-0.078805 -0.028794,-0.053042 -0.092444,-0.122754 l -0.5880069,-0.6455951 -0.1045682,0.089413 0,0.5607281 q 0,0.1727649 0.051526,0.2197448 0.053042,0.045465 0.2288377,0.060619 l 0,0.056073 -0.8774638,0 0,-0.056073 z"
             inkscape:connector-curvature="0" /><path
             inkscape:connector-curvature="0"
             id="path4500"
             style="font-style:normal;font-variant:normal;font-weight:normal;font-stretch:normal;font-family:Times;-inkscape-font-specification:Times;fill:#d87f28;fill-opacity:1;stroke:#945e32;stroke-width:0.05145404;stroke-miterlimit:4;stroke-dasharray:none;stroke-opacity:1"
             d="m 3.8055428,-5.5877292 q 0.1894352,-0.013639 0.245508,-0.056073 0.056073,-0.043949 0.056073,-0.2242913 l 0,-1.3806036 q 0,-0.1712494 -0.056073,-0.2197448 -0.056073,-0.050011 -0.245508,-0.059104 l 0,-0.057588 0.9183818,0 0,0.057588 q -0.1894352,0.00909 -0.245508,0.059104 -0.056073,0.048495 -0.056073,0.2197448 l 0,1.3806036 q 0,0.1803423 0.056073,0.2242913 0.056073,0.042434 0.245508,0.056073 l 0,0.056073 -0.9183818,0 0,-0.056073 z m 0.4591909,-1.9974046 0,0 z" /><path
             inkscape:connector-curvature="0"
             id="path4502"
             style="font-style:normal;font-variant:normal;font-weight:normal;font-stretch:normal;font-family:Times;-inkscape-font-specification:Times;fill:#d87f28;fill-opacity:1;stroke:#945e32;stroke-width:0.05145404;stroke-miterlimit:4;stroke-dasharray:none;stroke-opacity:1"
             d="m 4.872306,-5.5910311 q 0.1924661,-0.019701 0.2470235,-0.086382 0.054557,-0.068197 0.054557,-0.3137047 l 0,-1.2608806 q 0,-0.1682185 -0.053042,-0.2182294 -0.053042,-0.051526 -0.2409616,-0.060619 l 0,-0.057588 0.61377,0 0.7183382,1.5654924 0.6865132,-1.5654924 0.6183164,0 0,0.057588 q -0.1727649,0.012124 -0.2227758,0.06365 -0.050011,0.050011 -0.050011,0.2151984 l 0,1.3806036 q 0,0.169734 0.050011,0.2182294 0.050011,0.04698 0.2227758,0.062135 l 0,0.056073 -0.8698864,0 0,-0.056073 q 0.1879197,-0.015155 0.2333842,-0.066681 0.04698,-0.053042 0.04698,-0.2500544 l 0,-1.394243 -0.7941123,1.7670514 -0.042433,0 -0.780473,-1.6943083 0,1.2381484 q 0,0.2546009 0.074259,0.3318904 0.048495,0.050011 0.2167139,0.068197 l 0,0.056073 -0.7289466,0 0,-0.056073 z" /><path
             inkscape:connector-curvature="0"
             id="path4504"
             style="font-style:normal;font-variant:normal;font-weight:normal;font-stretch:normal;font-family:Times;-inkscape-font-specification:Times;fill:#d87f28;fill-opacity:1;stroke:#945e32;stroke-width:0.05145404;stroke-miterlimit:4;stroke-dasharray:none;stroke-opacity:1"
             d="m 8.7291077,-7.7131193 q 0.1682184,0 0.3455298,0.050011 0.1773113,0.050011 0.198528,0.050011 0.043949,0 0.083352,-0.024248 0.039402,-0.024248 0.054557,-0.075774 l 0.065166,0 0.028794,0.6971215 -0.071228,0 Q 9.3716715,-7.2236188 9.27165,-7.3509192 9.0806993,-7.5903653 8.7579017,-7.5903653 q -0.3258285,0 -0.5334495,0.2576319 -0.2061054,0.2576318 -0.2061054,0.7092453 0,0.415242 0.2167138,0.6637809 0.2182294,0.2470235 0.5516353,0.2470235 0.2409615,0 0.4440361,-0.1151766 0.116692,-0.065166 0.2561163,-0.1970126 l 0.057588,0.057588 q -0.1030527,0.1303314 -0.2561163,0.2288377 -0.2606629,0.166703 -0.5652746,0.166703 -0.5001089,0 -0.7941123,-0.3197666 -0.2712712,-0.2955189 -0.2712712,-0.7380395 0,-0.453129 0.286426,-0.7607717 0.3015808,-0.3227976 0.7850194,-0.3227976 z m -0.010608,0 q 0,0 0,0 z" /><path
             inkscape:connector-curvature="0"
             id="path4506"
             style="font-style:normal;font-variant:normal;font-weight:normal;font-stretch:normal;font-family:Times;-inkscape-font-specification:Times;fill:#d87f28;fill-opacity:1;stroke:#945e32;stroke-width:0.05145404;stroke-miterlimit:4;stroke-dasharray:none;stroke-opacity:1"
             d="m 9.8141264,-5.8364354 q 0.1818578,-0.019701 0.2273226,-0.066681 0.04546,-0.048495 0.04546,-0.2500544 l 0,-1.3442321 q 0,-0.166703 -0.05153,-0.2167139 -0.050011,-0.050011 -0.2212606,-0.062135 l 0,-0.057588 0.8623096,0 0,0.057588 q -0.17125,0.012124 -0.222776,0.062135 -0.05153,0.050011 -0.05153,0.2167139 l 0,0.6046771 0.941114,0 0,-0.6046771 q 0,-0.166703 -0.05001,-0.2167139 -0.05001,-0.050011 -0.222776,-0.062135 l 0,-0.057588 0.862309,0 0,0.057588 q -0.17125,0.012124 -0.222776,0.062135 -0.05001,0.050011 -0.05001,0.2167139 l 0,1.3806036 q 0,0.169734 0.05001,0.2182294 0.05153,0.04698 0.222776,0.062135 l 0,0.056073 -0.862309,0 0,-0.056073 q 0.183373,-0.018186 0.227322,-0.066681 0.04546,-0.048495 0.04546,-0.2500544 l 0,-0.6031617 -0.941114,0 0,0.6395332 q 0,0.169734 0.05153,0.2182294 0.05153,0.048495 0.222776,0.062135 l 0,0.056073 -0.8623096,0 0,-0.056073 z" /><path
             inkscape:connector-curvature="0"
             id="path4508"
             style="font-style:normal;font-variant:normal;font-weight:normal;font-stretch:normal;font-family:Times;-inkscape-font-specification:Times;fill:#d87f28;fill-opacity:1;stroke:#945e32;stroke-width:0.05145404;stroke-miterlimit:4;stroke-dasharray:none;stroke-opacity:1"
             d="m 12.040808,-5.89531 q 0.189436,-0.013639 0.245508,-0.056073 0.05607,-0.043949 0.05607,-0.2242913 l 0,-1.3806036 q 0,-0.1712494 -0.05607,-0.2197448 -0.05607,-0.050011 -0.245508,-0.059104 l 0,-0.057588 0.918382,0 0,0.057588 q -0.189435,0.00909 -0.245508,0.059104 -0.05607,0.048495 -0.05607,0.2197448 l 0,1.3806036 q 0,0.1803423 0.05607,0.2242913 0.05607,0.042434 0.245508,0.056073 l 0,0.056073 -0.918382,0 0,-0.056073 z m 0.459191,-1.9974046 0,0 z" /></g><ellipse
           ry="10.082772"
           rx="2.2861526"
           transform="matrix(1,0,0,-1,0.70888454,0.72428224)"
           cy="-12.789769"
           cx="3.8072393"
           id="path4487"
           style="opacity:0.42699998;fill:#dedede;fill-opacity:1;stroke:none;stroke-width:0.07372342;stroke-linecap:round;stroke-linejoin:round;stroke-miterlimit:4;stroke-dasharray:none;stroke-opacity:1;filter:url(#filter4493)" /><g
           style="fill:none"
           id="g4525"><g
             style="fill:none"
             id="g4527"><g
               style="fill:none"
               id="g4529"><path
                 id="path4531"
                 style="fill:none;fill-rule:evenodd"
                 d="m 17.281,24.05 c 0.508,-0.586 0.867,-1.133 1.078,-1.64 0.215,-0.637 0.321,-1.493 0.321,-2.559 0,-0.984 -0.094,-3.481 -0.282,-7.481 C 18.238,8.824 18.133,6.597 18.078,5.691 18,4.839 17.652,4.038 17.039,3.292 16.188,2.226 14.961,1.464 13.359,1.011 12.078,0.636 10.828,0.476 9.602,0.531 8.375,0.476 7.121,0.636 5.84,1.011 4.238,1.464 3.027,2.226 2.199,3.292 1.559,4.066 1.215,4.867 1.16,5.691 1.105,6.359 0.988,8.585 0.801,12.37 0.613,16.292 0.52,18.785 0.52,19.851 c 0,1.066 0.121,1.922 0.359,2.559 0.187,0.507 0.535,1.054 1.043,1.64 0.957,1.043 1.637,2 2.039,2.883 l 5.641,-0.32 5.636,0.32 c 0.535,-0.988 1.215,-1.949 2.043,-2.883 z"
                 inkscape:connector-curvature="0" /></g></g></g></g></g></g><metadata
     id="metadata293"><rdf:RDF><cc:Work><dc:format>image/svg+xml</dc:format><dc:type
           rdf:resource="http://purl.org/dc/dcmitype/StillImage" /><cc:license
           rdf:resource="http://creativecommons.org/publicdomain/zero/1.0/" /><dc:publisher><cc:Agent
             rdf:about="http://openclipart.org/"><dc:title></dc:title></cc:Agent></dc:publisher><dc:title></dc:title><dc:creator><cc:Agent><dc:title>j4p4n</dc:title></cc:Agent></dc:creator></cc:Work><cc:License
         rdf:about="http://creativecommons.org/publicdomain/zero/1.0/"><cc:permits
           rdf:resource="http://creativecommons.org/ns#Reproduction" /><cc:permits
           rdf:resource="http://creativecommons.org/ns#Distribution" /><cc:permits
           rdf:resource="http://creativecommons.org/ns#DerivativeWorks" /></cc:License></rdf:RDF></metadata></svg>